HIERARCHY
ROOT Hips
{
	OFFSET 0.000000 0.000000 0.000000
	CHANNELS 6 Xposition Yposition Zposition Zrotation Yrotation Xrotation 
	JOINT LHipJoint
	{
		OFFSET 0.000000 0.000000 0.000000
		CHANNELS 3 Zrotation Yrotation Xrotation
		JOINT LeftUpLeg
		{
			OFFSET 1.363060 -1.794630 0.839290
			CHANNELS 3 Zrotation Yrotation Xrotation
			JOINT LeftLeg
			{
				OFFSET 2.448110 -6.726130 0.000000
				CHANNELS 3 Zrotation Yrotation Xrotation
				JOINT LeftFoot
				{
					OFFSET 2.562200 -7.039590 0.000000
					CHANNELS 3 Zrotation Yrotation Xrotation
					JOINT LeftToeBase
					{
						OFFSET 0.157640 -0.433110 2.322550
						CHANNELS 3 Zrotation Yrotation Xrotation
						End Site
						{
							OFFSET 0.000000 0.000000 0.000000
						}
					}
				}
			}
		}
	}
	JOINT RHipJoint
	{
		OFFSET 0.000000 0.000000 0.000000
		CHANNELS 3 Zrotation Yrotation Xrotation
		JOINT RightUpLeg
		{
			OFFSET -1.305520 -1.794630 0.839290
			CHANNELS 3 Zrotation Yrotation Xrotation
			JOINT RightLeg
			{
				OFFSET -2.542530 -6.985550 0.000000
				CHANNELS 3 Zrotation Yrotation Xrotation
				JOINT RightFoot
				{
					OFFSET -2.568260 -7.056230 0.000000
					CHANNELS 3 Zrotation Yrotation Xrotation
					JOINT RightToeBase
					{
						OFFSET -0.164730 -0.452590 2.363150
						CHANNELS 3 Zrotation Yrotation Xrotation
						End Site
						{
							OFFSET 0.000000 0.000000 0.000000
						}
					}
				}
			}
		}
	}
	JOINT LowerBack
	{
		OFFSET 0.000000 0.000000 0.000000
		CHANNELS 3 Zrotation Yrotation Xrotation
		JOINT Spine
		{
			OFFSET 0.028270 2.035590 -0.193380
			CHANNELS 3 Zrotation Yrotation Xrotation
			JOINT Spine1
			{
				OFFSET 0.056720 2.048850 -0.042750
				CHANNELS 3 Zrotation Yrotation Xrotation
				JOINT Neck
				{
					OFFSET 0.000000 0.000000 0.000000
					CHANNELS 3 Zrotation Yrotation Xrotation
					JOINT Neck1
					{
						OFFSET -0.054170 1.746240 0.172020
						CHANNELS 3 Zrotation Yrotation Xrotation
						JOINT Head
						{
							OFFSET 0.104070 1.761360 -0.123970
							CHANNELS 3 Zrotation Yrotation Xrotation
							End Site
							{
								OFFSET 0.000000 0.000000 0.000000
							}
						}
					}
				}
				JOINT LeftShoulder
				{
					OFFSET 0.000000 0.000000 0.000000
					CHANNELS 3 Zrotation Yrotation Xrotation
					JOINT LeftArm
					{
						OFFSET 3.362410 1.200890 -0.311210
						CHANNELS 3 Zrotation Yrotation Xrotation
						JOINT LeftForeArm
						{
							OFFSET 4.983000 -0.000000 -0.000000
							CHANNELS 3 Zrotation Yrotation Xrotation
							JOINT LeftHand
							{
								OFFSET 3.483560 -0.000000 -0.000000
								CHANNELS 3 Zrotation Yrotation Xrotation
								JOINT LeftFingerBase
								{
									OFFSET 0.000000 0.000000 0.000000
									CHANNELS 3 Zrotation Yrotation Xrotation
									JOINT LeftHandIndex1
									{
										OFFSET 0.715260 -0.000000 -0.000000
										CHANNELS 3 Zrotation Yrotation Xrotation
										End Site
										{
											OFFSET 0.000000 0.000000 0.000000
										}
									}
								}
								JOINT LThumb
								{
									OFFSET 0.000000 0.000000 0.000000
									CHANNELS 3 Zrotation Yrotation Xrotation
									End Site
									{
										OFFSET 0.000000 0.000000 0.000000
									}
								}
							}
						}
					}
				}
				JOINT RightShoulder
				{
					OFFSET 0.000000 0.000000 0.000000
					CHANNELS 3 Zrotation Yrotation Xrotation
					JOINT RightArm
					{
						OFFSET -3.136600 1.374050 -0.404650
						CHANNELS 3 Zrotation Yrotation Xrotation
						JOINT RightForeArm
						{
							OFFSET -5.241900 -0.000000 -0.000000
							CHANNELS 3 Zrotation Yrotation Xrotation
							JOINT RightHand
							{
								OFFSET -3.444170 -0.000000 -0.000000
								CHANNELS 3 Zrotation Yrotation Xrotation
								JOINT RightFingerBase
								{
									OFFSET 0.000000 0.000000 0.000000
									CHANNELS 3 Zrotation Yrotation Xrotation
									JOINT RightHandIndex1
									{
										OFFSET -0.622530 -0.000000 -0.000000
										CHANNELS 3 Zrotation Yrotation Xrotation
										End Site
										{
											OFFSET 0.000000 0.000000 0.000000
										}
									}
								}
								JOINT RThumb
								{
									OFFSET 0.000000 0.000000 0.000000
									CHANNELS 3 Zrotation Yrotation Xrotation
									End Site
									{
										OFFSET 0.000000 0.000000 0.000000
									}
								}
							}
						}
					}
				}
			}
		}
	}
}
MOTION
Frames: 6
Frame Time: 0.008333
5.464306 17.257843 -1.797885 66.778990 -87.526545 -31.213049 -6.917511 -0.733533 8.607117 -1.464021 -16.249423 -101.684104 -4.972113 -1.733812 1.330917 0.191773 6.303788 18.228157 4.739700 -0.000000 -48.607200 9.065041 0.921069 -0.559598 13.320625 3.222434 -32.842034 3.359943 2.701652 -5.185343 -1.012044 -6.075533 1.052070 -1.933900 0.000000 -47.965300 -3.550457 -1.122155 -3.808358 -1.426980 -1.031721 -3.991085 -5.787665 -1.150903 -0.517810 8.917334 -7.449674 -8.966794 -2.890908 -0.181027 -0.664251 0.000000 0.000000 0.000000 0.164245 4.908165 2.504201 -62.343470 -6.275540 -16.907002 -0.937555 -64.941147 -0.069530 19.534236 -8.926609 -1.611437 -0.218204 0.321060 0.000000 0.000000 0.000000 0.000000 0.000000 0.000000 0.000000 10.711620 -3.637319 1.964313 62.305736 7.618198 -7.867629 0.777708 62.317319 -0.052065 -13.700894 10.935202 -1.378550 0.168872 -0.369870 0.000000 0.000000 0.000000 0.000000 0.000000 0.000000 0.000000 
5.474067 17.257720 -1.801936 73.028197 -88.040225 -37.640968 -6.991656 -0.871796 8.305000 -1.241443 -15.104597 -100.537585 -4.805747 -1.392117 1.937389 -0.157084 4.870866 21.205424 4.123300 -0.000000 -47.097400 9.147546 0.859536 -0.548770 13.806707 3.128662 -33.043966 3.478951 2.606779 -4.595486 -0.866059 -5.263324 1.048550 -1.755600 0.000000 -48.199300 -3.334569 -1.110862 -3.607864 -1.377324 -1.031756 -3.948654 -5.803664 -1.149891 -0.545105 8.985455 -7.300690 -8.875912 -2.895536 -0.182298 -0.640972 0.000000 0.000000 0.000000 0.319094 4.884588 2.506504 -62.216627 -6.073400 -17.021289 -0.914795 -65.362860 -0.070566 19.570810 -8.883308 -1.607434 -0.219667 0.323787 0.000000 0.000000 0.000000 0.000000 0.000000 0.000000 0.000000 10.765580 -3.491429 1.951265 62.226759 8.138095 -7.629247 0.778111 62.163145 -0.052530 -13.743793 11.006012 -1.391757 0.168691 -0.371498 0.000000 0.000000 0.000000 0.000000 0.000000 0.000000 0.000000 
5.477004 17.262092 -1.810728 80.546798 -88.343264 -45.339975 -7.001392 -1.027484 8.027045 -1.114316 -14.116169 -98.987394 -4.754728 -1.211112 1.868782 -0.557914 2.790115 23.448847 2.989200 0.000000 -45.731000 9.250973 0.790733 -0.524319 14.187525 2.878902 -33.239126 3.583127 2.512150 -4.098415 -0.715396 -4.421855 1.078089 -1.575000 0.000000 -48.326900 -3.240373 -1.159872 -3.457415 -1.349919 -1.084819 -3.910191 -5.823808 -1.203154 -0.563592 9.076723 -7.201762 -8.803387 -2.894827 -0.183067 -0.620851 0.000000 0.000000 0.000000 0.519159 4.825675 2.512600 -62.052417 -5.715417 -17.093900 -0.896048 -65.827130 -0.071381 19.591970 -8.817763 -1.598321 -0.221779 0.326155 0.000000 0.000000 0.000000 0.000000 0.000000 0.000000 0.000000 10.820357 -3.409774 1.928538 62.313565 8.548877 -7.393708 0.775515 62.037202 -0.052859 -13.762959 11.067499 -1.401359 0.167962 -0.372623 0.000000 0.000000 0.000000 0.000000 0.000000 0.000000 0.000000 
5.472918 17.269966 -1.823739 88.325231 -88.433152 -53.265850 -6.967217 -1.187570 7.799348 -0.988790 -13.306907 -97.141039 -4.779858 -1.180330 1.221082 -0.939243 0.482284 24.826014 1.621500 0.000000 -44.819000 9.352735 0.720303 -0.464484 14.393931 2.601177 -33.399127 3.653123 2.436856 -3.803203 -0.583709 -3.700544 1.187860 -1.428500 -0.000000 -48.476300 -3.278558 -1.259612 -3.395421 -1.349887 -1.181519 -3.883107 -5.847168 -1.300939 -0.566532 9.180881 -7.160688 -8.751606 -2.888705 -0.183346 -0.604063 0.000000 0.000000 0.000000 0.747314 4.755490 2.519656 -61.844113 -5.248528 -17.106752 -0.883271 -66.298789 -0.071868 19.591206 -8.737088 -1.584597 -0.224554 0.328054 0.000000 0.000000 0.000000 0.000000 0.000000 0.000000 0.000000 10.867882 -3.396457 1.893560 62.555522 8.834174 -7.157136 0.770417 61.968153 -0.053013 -13.753931 11.110968 -1.405754 0.166854 -0.373241 0.000000 0.000000 0.000000 0.000000 0.000000 0.000000 0.000000 
5.462556 17.280280 -1.839673 95.144519 -88.348992 -60.204463 -6.903473 -1.328430 7.628099 -0.825580 -12.676703 -95.092410 -4.838082 -1.269736 0.181805 -1.256428 -1.667801 25.314473 0.322800 -0.000001 -44.553100 9.445077 0.658094 -0.378152 14.436560 2.322365 -33.510380 3.692153 2.385158 -3.685032 -0.473189 -3.108608 1.346037 -1.313100 -0.000000 -48.597000 -3.427004 -1.392662 -3.415799 -1.374785 -1.305547 -3.867381 -5.871522 -1.426277 -0.552938 9.281887 -7.181336 -8.721236 -2.876442 -0.183058 -0.590893 0.000000 0.000000 0.000000 0.975922 4.693213 2.525984 -61.589952 -4.709589 -17.059896 -0.876429 -66.760706 -0.071988 19.563526 -8.643312 -1.566262 -0.227786 0.329343 0.000000 0.000000 0.000000 0.000000 0.000000 0.000000 0.000000 10.890264 -3.448566 1.846198 62.931898 8.998745 -6.913266 0.763123 61.974930 -0.053009 -13.716137 11.128591 -1.403942 0.165543 -0.373480 0.000000 0.000000 0.000000 0.000000 0.000000 0.000000 0.000000 
5.446800 17.291985 -1.857151 100.393966 -88.144554 -65.553843 -6.816840 -1.434830 7.511088 -0.583431 -12.213680 -92.914832 -4.886524 -1.448183 -1.075746 -1.478996 -3.313579 25.003064 -0.638701 0.000000 -44.974900 9.533224 0.613715 -0.269865 14.328511 2.080980 -33.553929 3.700138 2.357734 -3.723323 -0.388357 -2.669016 1.531326 -1.231000 -0.000000 -48.687800 -3.646996 -1.541116 -3.508301 -1.416933 -1.441054 -3.861905 -5.895863 -1.562952 -0.522341 9.368655 -7.265802 -8.712849 -2.858293 -0.182196 -0.581734 0.000000 0.000000 0.000000 1.182295 4.657620 2.529887 -61.292966 -4.139787 -16.954098 -0.875214 -67.196506 -0.071712 19.507345 -8.540251 -1.544021 -0.231260 0.329906 0.000000 0.000000 0.000000 0.000000 0.000000 0.000000 0.000000 10.878784 -3.562047 1.787035 63.409479 9.047762 -6.657507 0.754130 62.076648 -0.052867 -13.651479 11.115051 -1.395525 0.164225 -0.373464 0.000000 0.000000 0.000000 0.000000 0.000000 0.000000 0.000000 
